<svg width="18" height="14" viewBox="0 0 18 14" fill="none" xmlns="http://www.w3.org/2000/svg">
<path d="M17.9999 1.70441C17.3258 1.98888 16.6109 2.17561 15.8788 2.25838C16.6414 1.82297 17.2269 1.13349 17.5026 0.311979C16.7777 0.721787 15.9846 1.01052 15.1576 1.16571C14.4839 0.481989 13.5242 0.0546875 12.462 0.0546875C10.4225 0.0546875 8.76897 1.62992 8.76897 3.57277C8.76897 3.84855 8.80167 4.11703 8.8646 4.37459C5.79546 4.22782 3.07436 2.82722 1.25292 0.698687C0.935104 1.21829 0.752995 1.82271 0.752995 2.46738C0.752995 3.68799 1.405 4.76478 2.39585 5.39572C1.8094 5.37822 1.23587 5.22732 0.723112 4.95562C0.722901 4.97036 0.722901 4.9851 0.722901 4.9999C0.722901 6.70448 1.99584 8.12645 3.68517 8.44966C3.14136 8.59056 2.57095 8.61118 2.0175 8.50995C2.48739 9.90767 3.85125 10.9248 5.46717 10.9532C4.2033 11.8968 2.61093 12.4593 0.880823 12.4593C0.582698 12.4593 0.288792 12.4426 -0.00012207 12.4101C1.63415 13.4083 3.57527 13.9908 5.66074 13.9908C12.4534 13.9908 16.1678 8.62985 16.1678 3.98078C16.1678 3.82819 16.1643 3.67647 16.1571 3.52561C16.8801 3.0277 17.5041 2.41098 17.9999 1.70441Z" fill="#192031"/>
</svg>
